<svg xmlns="http://www.w3.org/2000/svg" viewBox="0 0 681.18 107.75"><defs><style>.cls-1{fill:#fff;}</style></defs><g id="Layer_2" data-name="Layer 2"><g id="Layer_1-2" data-name="Layer 1"><path class="cls-1" d="M151.38,44.83,134.65,61.56a5,5,0,0,0,4.57,4.57L156,49.4A5,5,0,0,0,151.38,44.83Zm0,0L134.65,61.56a5,5,0,0,0,4.57,4.57L156,49.4A5,5,0,0,0,151.38,44.83Zm0,0L134.65,61.56a5,5,0,0,0,4.57,4.57L156,49.4A5,5,0,0,0,151.38,44.83Zm0,0L134.65,61.56a5,5,0,0,0,4.57,4.57L156,49.4A5,5,0,0,0,151.38,44.83Zm0,0L134.65,61.56a5,5,0,0,0,4.57,4.57L156,49.4A5,5,0,0,0,151.38,44.83Zm0,0L134.65,61.56a5,5,0,0,0,4.57,4.57L156,49.4A5,5,0,0,0,151.38,44.83Zm0,0L134.65,61.56a5,5,0,0,0,4.57,4.57L156,49.4A5,5,0,0,0,151.38,44.83Zm0,0L134.65,61.56a5,5,0,0,0,4.57,4.57L156,49.4A5,5,0,0,0,151.38,44.83Zm0,0L134.65,61.56a5,5,0,0,0,4.57,4.57L156,49.4A5,5,0,0,0,151.38,44.83Zm0,0L134.65,61.56a5,5,0,0,0,4.57,4.57L156,49.4A5,5,0,0,0,151.38,44.83Zm0,0L134.65,61.56a5,5,0,0,0,4.57,4.57L156,49.4A5,5,0,0,0,151.38,44.83Zm-.41-7H139.63a12,12,0,0,0-12,12V61.15a12,12,0,0,0,12,12H151a12,12,0,0,0,12-12V49.81A12,12,0,0,0,151,37.81Zm5,12V61.15a5,5,0,0,1-5,5H139.63l-.41,0-3.29,3.29-4.57-4.57,3.29-3.29c0-.13,0-.27,0-.41V49.81a5,5,0,0,1,5-5H151l.41,0,3.29-3.29,4.57,4.57L156,49.4C156,49.53,156,49.67,156,49.81Zm-4.59-5L134.65,61.56a5,5,0,0,0,4.57,4.57L156,49.4A5,5,0,0,0,151.38,44.83Zm0,0L134.65,61.56a5,5,0,0,0,4.57,4.57L156,49.4A5,5,0,0,0,151.38,44.83Zm0,0L134.65,61.56a5,5,0,0,0,4.57,4.57L156,49.4A5,5,0,0,0,151.38,44.83Zm0,0L134.65,61.56a5,5,0,0,0,4.57,4.57L156,49.4A5,5,0,0,0,151.38,44.83Zm0,0L134.65,61.56a5,5,0,0,0,4.57,4.57L156,49.4A5,5,0,0,0,151.38,44.83Zm0,0L134.65,61.56a5,5,0,0,0,4.57,4.57L156,49.4A5,5,0,0,0,151.38,44.83Zm0,0L134.65,61.56a5,5,0,0,0,4.57,4.57L156,49.4A5,5,0,0,0,151.38,44.83Zm0,0L134.65,61.56a5,5,0,0,0,4.57,4.57L156,49.4A5,5,0,0,0,151.38,44.83Zm0,0L134.65,61.56a5,5,0,0,0,4.57,4.57L156,49.4A5,5,0,0,0,151.38,44.83Zm0,0L134.65,61.56a5,5,0,0,0,4.57,4.57L156,49.4A5,5,0,0,0,151.38,44.83Zm0,0L134.65,61.56a5,5,0,0,0,4.57,4.57L156,49.4A5,5,0,0,0,151.38,44.83Zm0,0L134.65,61.56a5,5,0,0,0,4.57,4.57L156,49.4A5,5,0,0,0,151.38,44.83ZM0,74.85V90.74a17,17,0,0,0,17,17A15.89,15.89,0,0,0,32.9,91.86v-17ZM17,38a17,17,0,0,0-17,17V70.94H32.9V38ZM300.36,19.52c0-1.18,0-2.36,0-3.54l12.54-.09a16.27,16.27,0,0,0-4.65-11.24A16.27,16.27,0,0,0,297,0a17,17,0,0,0-17,17V32.9h32.89V27.39c0-2.68,0-5.34,0-8Zm-3.9-4.94a3.7,3.7,0,1,1,3.7-3.7A3.7,3.7,0,0,1,296.46,14.58ZM280,38v32.9H295.9a17,17,0,0,0,17-17V38Zm-38,0v32.9H275V38ZM37.61,38v32.9h32.9V38ZM237,38.36a1.05,1.05,0,0,0-.78-.33h-6.41a2.08,2.08,0,0,0-1,.28,2.53,2.53,0,0,0-.78.64l-8.85,13a.68.68,0,0,1-.6.36.78.78,0,0,1-.64-.36l-8.86-13a1.94,1.94,0,0,0-.73-.64,2.08,2.08,0,0,0-1-.28h-6.41a1.05,1.05,0,0,0-.78.33,1.06,1.06,0,0,0-.32.78V70.56a1.1,1.1,0,0,0,.32.78,1.06,1.06,0,0,0,.78.32H208a1.06,1.06,0,0,0,.78-.32,1.1,1.1,0,0,0,.32-.78V55.74a.44.44,0,0,1,.41-.5.64.64,0,0,1,.65.32L217.87,68a.92.92,0,0,0,.78.36.82.82,0,0,0,.74-.36l7.74-12.47a.75.75,0,0,1,.7-.32.44.44,0,0,1,.41.5V70.56a1.1,1.1,0,0,0,.32.78,1.06,1.06,0,0,0,.78.32h6.91a1.06,1.06,0,0,0,.78-.32,1.1,1.1,0,0,0,.32-.78V39.14A1.06,1.06,0,0,0,237,38.36ZM196.27,70.42q-1.52-2-3.45-4.46c-1.29-1.63-2.51-3.21-3.68-4.74a.83.83,0,0,1-.16-.76,1.36,1.36,0,0,1,.48-.67,8.28,8.28,0,0,0,2-1.72A11.84,11.84,0,0,0,193,55.74a12.62,12.62,0,0,0,1.33-5.65,12.81,12.81,0,0,0-.89-4.88,11.69,11.69,0,0,0-2.49-3.82,10.92,10.92,0,0,0-3.84-2.5,13.13,13.13,0,0,0-4.92-.9H167.84a1.09,1.09,0,0,0-1.1,1.1V70.56a1.09,1.09,0,0,0,1.11,1.1h6.89a1.11,1.11,0,0,0,1.11-1.1V63.1A1.09,1.09,0,0,1,177,62h1a2.29,2.29,0,0,1,1,.25,2.21,2.21,0,0,1,.77.62q1.42,2,2.86,4t2.91,3.91a2.2,2.2,0,0,0,.81.62,2.26,2.26,0,0,0,1,.25h8.55a.57.57,0,0,0,.6-.44A.83.83,0,0,0,196.27,70.42ZM184.87,51.6a3.62,3.62,0,0,1-.83,1.09,3.31,3.31,0,0,1-1.1.64,3.41,3.41,0,0,1-1.14.21H177a1.11,1.11,0,0,1-1.1-1.11V47.56a1.09,1.09,0,0,1,1.1-1.11h4.85a3.13,3.13,0,0,1,1.62.39,3.21,3.21,0,0,1,1.06,1A3.82,3.82,0,0,1,185,49a4.7,4.7,0,0,1,.16,1.08A3.36,3.36,0,0,1,184.87,51.6ZM127.49,38.38a.69.69,0,0,0-.69-.39h-7.45a1.51,1.51,0,0,0-.92.3,1.69,1.69,0,0,0-.6.71l-5.29,15.41c-.12.31-.3.46-.53.46s-.39-.15-.48-.46l-5.06-15.36a1.43,1.43,0,0,0-.55-.76A1.56,1.56,0,0,0,105,38H98.88a1.51,1.51,0,0,0-.92.3,1.38,1.38,0,0,0-.55.76L92.35,54.32c-.1.31-.26.46-.49.46s-.39-.15-.48-.46L86.14,39a1.46,1.46,0,0,0-.56-.71,1.43,1.43,0,0,0-.87-.3h-7.5a.73.73,0,0,0-.71.39,1.07,1.07,0,0,0,0,.94l11,31.28A1.58,1.58,0,0,0,89,71.66h5.93a1.51,1.51,0,0,0,.92-.3,1.38,1.38,0,0,0,.55-.76l5.06-15.32c.1-.3.26-.46.49-.46s.39.16.48.46l5.06,15.32a1.43,1.43,0,0,0,.55.76,1.53,1.53,0,0,0,.92.3h5.94a1.56,1.56,0,0,0,.92-.3,1.69,1.69,0,0,0,.59-.76l11.14-31.42A1.06,1.06,0,0,0,127.49,38.38Z"/><path class="cls-1" d="M334.85,33.36V11.47a.75.75,0,0,1,.76-.76h8.74a11.66,11.66,0,0,1,8.22,2.94,10.51,10.51,0,0,1,2.63,3.81,13,13,0,0,1,.89,5,13.13,13.13,0,0,1-.89,5,10.42,10.42,0,0,1-2.63,3.83,10.74,10.74,0,0,1-3.66,2.17,13.55,13.55,0,0,1-4.56.74h-8.74a.75.75,0,0,1-.76-.77Zm7.1-5.12h2.4a8.13,8.13,0,0,0,1.86-.22,4.15,4.15,0,0,0,1.72-.85,4.5,4.5,0,0,0,1.27-1.76,7.49,7.49,0,0,0,.49-3,7.49,7.49,0,0,0-.49-3,4.52,4.52,0,0,0-1.28-1.76,4.38,4.38,0,0,0-1.73-.85,7.9,7.9,0,0,0-1.84-.22H342a.72.72,0,0,0-.54.22.75.75,0,0,0-.23.55v10a.75.75,0,0,0,.23.55A.72.72,0,0,0,342,28.24Zm23.3-10.88v1.35a.75.75,0,0,0,.76.76h8.68a.74.74,0,0,1,.54.23.73.73,0,0,1,.22.54v4.42a.73.73,0,0,1-.22.54.74.74,0,0,1-.54.23H366a.75.75,0,0,0-.76.76v1.22a.73.73,0,0,0,.22.54.74.74,0,0,0,.54.23h10a.75.75,0,0,1,.76.77v4.41a.75.75,0,0,1-.76.77H359.68a.75.75,0,0,1-.77-.77V11.47a.75.75,0,0,1,.77-.76H376a.75.75,0,0,1,.76.76v4.36a.75.75,0,0,1-.76.76H366a.74.74,0,0,0-.54.23A.73.73,0,0,0,365.25,17.36Zm33,11.65v4.35a.75.75,0,0,1-.77.77h-16a.73.73,0,0,1-.56-.22.81.81,0,0,1-.2-.55V11.47a.8.8,0,0,1,.2-.54.73.73,0,0,1,.56-.22h4.8a.75.75,0,0,1,.77.76v16a.77.77,0,0,0,.21.55.73.73,0,0,0,.56.22h9.63a.75.75,0,0,1,.55.23A.73.73,0,0,1,398.27,29Zm6.66,4.42-9.67-21.8a.72.72,0,0,1,0-.64.56.56,0,0,1,.56-.28H401a1.17,1.17,0,0,1,.63.2,1.56,1.56,0,0,1,.46.5l5.63,12.86a.47.47,0,0,0,.42.29.45.45,0,0,0,.41-.29l5.6-12.86a1.48,1.48,0,0,1,.47-.5,1.14,1.14,0,0,1,.62-.2h5.31a.56.56,0,0,1,.55.8l-9.76,21.92a1.46,1.46,0,0,1-.47.49,1.08,1.08,0,0,1-.62.21H406a1.08,1.08,0,0,1-.62-.21A1.42,1.42,0,0,1,404.93,33.43ZM430,17.36v1.35a.74.74,0,0,0,.23.54.72.72,0,0,0,.54.22h8.67a.76.76,0,0,1,.55.23.77.77,0,0,1,.22.54v4.42a.77.77,0,0,1-.22.54.76.76,0,0,1-.55.23h-8.67a.72.72,0,0,0-.54.22.74.74,0,0,0-.23.54v1.22a.74.74,0,0,0,.23.54.73.73,0,0,0,.54.23h9.95a.75.75,0,0,1,.55.22.78.78,0,0,1,.22.55v4.41a.78.78,0,0,1-.22.55.75.75,0,0,1-.55.22H424.41a.75.75,0,0,1-.76-.77V11.47a.75.75,0,0,1,.76-.76H440.7a.75.75,0,0,1,.55.22.77.77,0,0,1,.22.54v4.36a.77.77,0,0,1-.22.54.75.75,0,0,1-.55.22h-9.95a.73.73,0,0,0-.54.23A.74.74,0,0,0,430,17.36Zm26.56,16V11.47a.74.74,0,0,1,.23-.54.72.72,0,0,1,.54-.22h8.74a11.68,11.68,0,0,1,8.22,2.94,10.49,10.49,0,0,1,2.62,3.81,13,13,0,0,1,.9,5,13.13,13.13,0,0,1-.9,5,10.39,10.39,0,0,1-2.62,3.83,10.93,10.93,0,0,1-3.66,2.17,13.55,13.55,0,0,1-4.56.74h-8.74a.72.72,0,0,1-.54-.22A.75.75,0,0,1,456.54,33.36Zm7.11-5.12h2.4A8.11,8.11,0,0,0,467.9,28a4.19,4.19,0,0,0,1.73-.85,4.59,4.59,0,0,0,1.26-1.76,7.47,7.47,0,0,0,.5-3,7.47,7.47,0,0,0-.5-3,4.42,4.42,0,0,0-1.28-1.76,4.34,4.34,0,0,0-1.72-.85,8,8,0,0,0-1.84-.22h-2.4a.75.75,0,0,0-.77.77v10a.75.75,0,0,0,.77.77Zm23.29-10.88v1.35a.74.74,0,0,0,.23.54.72.72,0,0,0,.54.22h8.67a.76.76,0,0,1,.55.23.77.77,0,0,1,.22.54v4.42a.77.77,0,0,1-.22.54.76.76,0,0,1-.55.23h-8.67a.72.72,0,0,0-.54.22.74.74,0,0,0-.23.54v1.22a.74.74,0,0,0,.23.54.73.73,0,0,0,.54.23h10a.75.75,0,0,1,.55.22.78.78,0,0,1,.22.55v4.41a.78.78,0,0,1-.22.55.75.75,0,0,1-.55.22H481.37a.75.75,0,0,1-.76-.77V11.47a.75.75,0,0,1,.76-.76h16.29a.75.75,0,0,1,.55.22.77.77,0,0,1,.22.54v4.36a.77.77,0,0,1-.22.54.75.75,0,0,1-.55.22h-10a.73.73,0,0,0-.54.23A.74.74,0,0,0,486.94,17.36Zm21.86,0v1.35a.75.75,0,0,0,.77.76h8.67a.79.79,0,0,1,.77.77v4.42a.79.79,0,0,1-.77.77h-8.67a.75.75,0,0,0-.77.76v1.22A.73.73,0,0,0,509,28a.75.75,0,0,0,.55.23h9.95a.73.73,0,0,1,.54.22.75.75,0,0,1,.23.55v4.41a.75.75,0,0,1-.23.55.73.73,0,0,1-.54.22H503.23a.72.72,0,0,1-.54-.22.75.75,0,0,1-.23-.55V11.47a.74.74,0,0,1,.23-.54.72.72,0,0,1,.54-.22h16.29a.73.73,0,0,1,.54.22.74.74,0,0,1,.23.54v4.36a.74.74,0,0,1-.23.54.73.73,0,0,1-.54.22h-9.95a.75.75,0,0,0-.55.23A.73.73,0,0,0,508.8,17.36Zm25.41,10.47h-2.79a.73.73,0,0,0-.54.22.74.74,0,0,0-.23.54v4.77a.75.75,0,0,1-.76.77h-4.81a.75.75,0,0,1-.76-.77V11.47a.75.75,0,0,1,.77-.76h9.79A8.63,8.63,0,0,1,541,13.23,9.22,9.22,0,0,1,542.86,16a8.21,8.21,0,0,1,.69,3.36,9.38,9.38,0,0,1-.58,3.34,7.13,7.13,0,0,1-1.75,2.69,8.28,8.28,0,0,1-2.92,1.79A11.5,11.5,0,0,1,534.21,27.83Zm.24-11.24h-3a.79.79,0,0,0-.78.77v3.75a.77.77,0,0,0,.78.76h3.44a2,2,0,0,0,1.78-.78,2.87,2.87,0,0,0,.56-1.76,3.14,3.14,0,0,0-.17-1,2.72,2.72,0,0,0-.53-.88,2.92,2.92,0,0,0-.87-.62A2.81,2.81,0,0,0,534.45,16.59Zm17.9.77v1.35a.75.75,0,0,0,.77.76h8.67a.79.79,0,0,1,.77.77v4.42a.79.79,0,0,1-.77.77h-8.67a.75.75,0,0,0-.77.76v1.22a.73.73,0,0,0,.22.54.75.75,0,0,0,.55.23h10a.73.73,0,0,1,.54.22.75.75,0,0,1,.23.55v4.41a.75.75,0,0,1-.23.55.73.73,0,0,1-.54.22H546.78a.73.73,0,0,1-.54-.22.75.75,0,0,1-.23-.55V11.47a.74.74,0,0,1,.23-.54.73.73,0,0,1,.54-.22h16.29a.73.73,0,0,1,.54.22.74.74,0,0,1,.23.54v4.36a.74.74,0,0,1-.23.54.73.73,0,0,1-.54.22h-10a.75.75,0,0,0-.55.23A.73.73,0,0,0,552.35,17.36ZM573.5,34.13h-4.79a.74.74,0,0,1-.55-.22.75.75,0,0,1-.23-.55V11.47a.74.74,0,0,1,.23-.54.73.73,0,0,1,.54-.22h9.95a9.14,9.14,0,0,1,3.43.62,7.92,7.92,0,0,1,2.67,1.74,8.15,8.15,0,0,1,1.73,2.66,9,9,0,0,1,.62,3.39,8.92,8.92,0,0,1-.93,3.94,8.27,8.27,0,0,1-1,1.61,6,6,0,0,1-1.38,1.2.89.89,0,0,0-.33.47.55.55,0,0,0,.11.53c.81,1.06,1.66,2.16,2.56,3.29s1.69,2.17,2.4,3.11a.56.56,0,0,1,.09.56.39.39,0,0,1-.41.3h-5.95a1.54,1.54,0,0,1-.69-.18,1.39,1.39,0,0,1-.56-.43c-.68-.89-1.36-1.8-2-2.72s-1.33-1.84-2-2.78a1.32,1.32,0,0,0-.54-.43,1.43,1.43,0,0,0-.67-.18H575a.77.77,0,0,0-.54.22.74.74,0,0,0-.22.55v5.18a.75.75,0,0,1-.23.55A.73.73,0,0,1,573.5,34.13ZM575,21.52h3.38a2.53,2.53,0,0,0,.79-.14,2.35,2.35,0,0,0,1.34-1.2,2.33,2.33,0,0,0,.22-1.06,2.83,2.83,0,0,0-.11-.75,2.49,2.49,0,0,0-.38-.83,2.15,2.15,0,0,0-.73-.67,2.23,2.23,0,0,0-1.13-.28H575a.74.74,0,0,0-.54.23.73.73,0,0,0-.22.54v3.39a.75.75,0,0,0,.76.77Zm32.68,12.61H602.9a.71.71,0,0,1-.55-.22.77.77,0,0,1-.21-.55V11.51a.77.77,0,0,1,.21-.55.71.71,0,0,1,.55-.22h4.81a.72.72,0,0,1,.54.22.75.75,0,0,1,.23.55V33.36a.75.75,0,0,1-.23.55A.72.72,0,0,1,607.71,34.13Zm27.07-22.66V33.36a.75.75,0,0,1-.77.77h-4.72a1.34,1.34,0,0,1-.67-.19,1.69,1.69,0,0,1-.55-.45l-8.33-11.74c-.13-.17-.26-.24-.4-.21s-.21.15-.21.37V33.36a.74.74,0,0,1-.22.55.75.75,0,0,1-.55.22h-4.79a.75.75,0,0,1-.77-.77V11.47a.75.75,0,0,1,.76-.76h4.8a1.48,1.48,0,0,1,.68.17,1.58,1.58,0,0,1,.54.43l8.32,11.75a.43.43,0,0,0,.4.22c.14,0,.21-.14.21-.35V11.47a.75.75,0,0,1,.77-.76H634a.75.75,0,0,1,.77.76Zm20.48,5.12h-4.48a.79.79,0,0,0-.77.77v16a.77.77,0,0,1-.21.55.7.7,0,0,1-.56.22h-4.8a.75.75,0,0,1-.76-.77v-16a.76.76,0,0,0-.21-.54.74.74,0,0,0-.56-.23h-4.55a.75.75,0,0,1-.76-.76V11.47a.75.75,0,0,1,.76-.76h16.9a.73.73,0,0,1,.56.22.76.76,0,0,1,.21.54v4.36a.76.76,0,0,1-.21.54A.73.73,0,0,1,655.26,16.59Zm1.7,5.83a11.7,11.7,0,0,1,1-4.71,12.48,12.48,0,0,1,2.59-3.85,12.21,12.21,0,0,1,3.84-2.61,12,12,0,0,1,9.41,0,12.34,12.34,0,0,1,6.46,6.46,12,12,0,0,1,0,9.41,12.31,12.31,0,0,1-6.46,6.47,12,12,0,0,1-9.41,0A12.21,12.21,0,0,1,660.51,31a12.53,12.53,0,0,1-2.59-3.86A11.66,11.66,0,0,1,657,22.42Zm6.33,0a5.93,5.93,0,0,0,.45,2.3A6.19,6.19,0,0,0,665,26.64,6.06,6.06,0,0,0,666.81,28a5.27,5.27,0,0,0,4.48,0,6.17,6.17,0,0,0,3.11-3.25,5.92,5.92,0,0,0,.44-2.3,6,6,0,0,0-.44-2.29,5.85,5.85,0,0,0-1.25-1.92,6.32,6.32,0,0,0-1.86-1.31,5.27,5.27,0,0,0-4.48,0A6.36,6.36,0,0,0,665,18.21a6,6,0,0,0-1.23,1.92A6,6,0,0,0,663.29,22.42Zm-295.64,56a28.21,28.21,0,0,1-3.2,4.26,18.19,18.19,0,0,1-3.92,3.25A18.43,18.43,0,0,1,355.7,88a21.37,21.37,0,0,1-5.85.75,18.88,18.88,0,0,1-7.5-1.5,20,20,0,0,1-6.12-4,18.64,18.64,0,0,1-4.13-6,18.76,18.76,0,0,1,0-14.7,18.64,18.64,0,0,1,4.13-6,20,20,0,0,1,6.12-4.05,18.88,18.88,0,0,1,7.5-1.5,21.81,21.81,0,0,1,5.95.75,18.29,18.29,0,0,1,4.8,2.1,18.06,18.06,0,0,1,3.88,3.27,31.52,31.52,0,0,1,3.17,4.23,1,1,0,0,1,.1.85,1,1,0,0,1-.6.65l-7.1,2.8a1.33,1.33,0,0,1-1,0,1.51,1.51,0,0,1-.75-.6,10.55,10.55,0,0,0-3.5-3.53,9.51,9.51,0,0,0-4.95-1.22,8.22,8.22,0,0,0-3.57.8,9.68,9.68,0,0,0-4.88,5.21,9.74,9.74,0,0,0,0,7.25,9.61,9.61,0,0,0,2,3,10.15,10.15,0,0,0,2.93,2.11,8.22,8.22,0,0,0,3.57.8,9.5,9.5,0,0,0,5-1.33,10.12,10.12,0,0,0,3.52-3.42,1.5,1.5,0,0,1,.73-.6,1.25,1.25,0,0,1,1,0l7.1,2.8a1,1,0,0,1,.6.62A1,1,0,0,1,367.65,78.39ZM402.1,52.94,389.6,73.19a6.93,6.93,0,0,0-.45,1.1,4.09,4.09,0,0,0-.2,1.15V86.89a1.16,1.16,0,0,1-.34.85,1.19,1.19,0,0,1-.85.35h-7.51a1.2,1.2,0,0,1-1.2-1.2V75.49a5.14,5.14,0,0,0-.17-1.18,3.89,3.89,0,0,0-.43-1.07q-3-5.14-6.12-10.1t-6.23-10.2A1.17,1.17,0,0,1,366,52a.63.63,0,0,1,.65-.47h8.9a2.06,2.06,0,0,1,1,.3,1.92,1.92,0,0,1,.77.75l6.13,10.7a.65.65,0,0,0,1.2,0l6.07-10.7a2,2,0,0,1,.78-.75,2.05,2.05,0,0,1,1-.3h9a.81.81,0,0,1,.73.35Q402.51,52.24,402.1,52.94Zm28.25,16.3a11.16,11.16,0,0,1,1.6,1.1,7.87,7.87,0,0,1,1.48,1.6,8.39,8.39,0,0,1,1.1,2.2A8.9,8.9,0,0,1,435,77a12.36,12.36,0,0,1-1,5.37,8.82,8.82,0,0,1-2.78,3.4,10.82,10.82,0,0,1-4,1.8,21.22,21.22,0,0,1-4.78.53H406.5a1.19,1.19,0,0,1-.85-.35,1.17,1.17,0,0,1-.35-.85V52.69a1.17,1.17,0,0,1,.35-.85,1.19,1.19,0,0,1,.85-.35h15.1a19.71,19.71,0,0,1,4.6.52,11,11,0,0,1,3.88,1.73,8.89,8.89,0,0,1,2.7,3.12,10,10,0,0,1,1,4.73,6.75,6.75,0,0,1-1.12,3.9,10.38,10.38,0,0,1-2.43,2.6C429.65,68.52,429.69,68.91,430.35,69.24Zm-14-3.85h4.65a1.91,1.91,0,0,0,1.6-.78,2.73,2.73,0,0,0,.6-1.72,2,2,0,0,0-.72-1.55,2.13,2.13,0,0,0-1.38-.65H416.4a1.19,1.19,0,0,0-.85.35,1.17,1.17,0,0,0-.35.85v2.3a1.17,1.17,0,0,0,.35.85A1.19,1.19,0,0,0,416.4,65.39Zm5.25,8.25H416.4a1.19,1.19,0,0,0-.85.35,1.17,1.17,0,0,0-.35.85v2.85a1.17,1.17,0,0,0,.35.85,1.19,1.19,0,0,0,.85.35H422a2.45,2.45,0,0,0,1.7-.75,2.3,2.3,0,0,0,.8-1.75,2.86,2.86,0,0,0-.77-1.83A2.6,2.6,0,0,0,421.65,73.64ZM450.2,61.89V64a1.17,1.17,0,0,0,.35.85,1.19,1.19,0,0,0,.85.35H465a1.15,1.15,0,0,1,.85.35,1.13,1.13,0,0,1,.35.85v6.9a1.13,1.13,0,0,1-.35.85,1.15,1.15,0,0,1-.85.35H451.4a1.19,1.19,0,0,0-.85.35,1.17,1.17,0,0,0-.35.85v1.9a1.17,1.17,0,0,0,.35.85,1.19,1.19,0,0,0,.85.35H467a1.15,1.15,0,0,1,.85.35,1.13,1.13,0,0,1,.35.85v6.9a1.13,1.13,0,0,1-.35.85,1.15,1.15,0,0,1-.85.35H441.5a1.19,1.19,0,0,1-.85-.35,1.17,1.17,0,0,1-.35-.85V52.69a1.17,1.17,0,0,1,.35-.85,1.19,1.19,0,0,1,.85-.35H467a1.15,1.15,0,0,1,.85.35,1.13,1.13,0,0,1,.35.85v6.8a1.13,1.13,0,0,1-.35.85,1.15,1.15,0,0,1-.85.35H451.4a1.19,1.19,0,0,0-.85.35A1.17,1.17,0,0,0,450.2,61.89Zm33.05,26.2h-7.49a1.19,1.19,0,0,1-.86-.35,1.17,1.17,0,0,1-.35-.85V52.69a1.17,1.17,0,0,1,.35-.85,1.19,1.19,0,0,1,.85-.35H491.3a14.3,14.3,0,0,1,5.35,1,11.94,11.94,0,0,1,4.18,2.73,12.62,12.62,0,0,1,2.7,4.15,14,14,0,0,1,1,5.3,13.77,13.77,0,0,1-1.45,6.15,12.18,12.18,0,0,1-1.65,2.52,9.12,9.12,0,0,1-2.15,1.88,1.4,1.4,0,0,0-.52.72.88.88,0,0,0,.17.83c1.27,1.67,2.6,3.38,4,5.15s2.65,3.38,3.75,4.85a.92.92,0,0,1,.15.87.62.62,0,0,1-.65.48h-9.3a2.4,2.4,0,0,1-1.07-.28,2.21,2.21,0,0,1-.88-.67q-1.59-2.1-3.16-4.25t-3.11-4.35a2.54,2.54,0,0,0-1.89-1h-1.09a1.2,1.2,0,0,0-1.2,1.2v8.1a1.13,1.13,0,0,1-.35.85A1.17,1.17,0,0,1,483.25,88.09Zm2.4-19.7h5.27a3.76,3.76,0,0,0,1.24-.23,3.57,3.57,0,0,0,1.2-.7,3.63,3.63,0,0,0,.89-1.17,3.58,3.58,0,0,0,.35-1.65,5.14,5.14,0,0,0-.17-1.18,4.36,4.36,0,0,0-.6-1.3,3.62,3.62,0,0,0-1.14-1,3.46,3.46,0,0,0-1.77-.42h-5.27a1.2,1.2,0,0,0-1.2,1.2v5.3a1.2,1.2,0,0,0,1.2,1.2Zm29,7.15A28.34,28.34,0,0,0,520,78.29a14,14,0,0,0,5,1,7.09,7.09,0,0,0,3.35-.63,2,2,0,0,0,1.15-1.87,1.21,1.21,0,0,0-.5-1,4.27,4.27,0,0,0-1.32-.62,12.06,12.06,0,0,0-1.93-.4c-.73-.1-1.48-.23-2.25-.4l-2.57-.48a21.91,21.91,0,0,1-6.1-2.12,10.51,10.51,0,0,1-2.73-2,9.55,9.55,0,0,1-1.92-3,10.31,10.31,0,0,1-.73-4.07,10.93,10.93,0,0,1,1.35-5.7,10.7,10.7,0,0,1,3.43-3.58,13.62,13.62,0,0,1,4.62-1.85,24.51,24.51,0,0,1,5-.52,21.86,21.86,0,0,1,7.53,1.22,24.11,24.11,0,0,1,6.37,3.58,1.24,1.24,0,0,1,.45.85,1.22,1.22,0,0,1-.25.9L534,63.09a1.26,1.26,0,0,1-.8.5,1.08,1.08,0,0,1-.9-.2,20.14,20.14,0,0,0-4.75-2.28,13.8,13.8,0,0,0-4-.67l-1.27,0a6.75,6.75,0,0,0-1.38.2,2.46,2.46,0,0,0-1.07.58,1.42,1.42,0,0,0-.43,1.1c0,.47.35.88,1.05,1.25a13.34,13.34,0,0,0,2.4,1,23.7,23.7,0,0,0,2.6.62c.84.15,1.37.25,1.6.28a35.61,35.61,0,0,1,3.95,1,14.45,14.45,0,0,1,4,2,11.38,11.38,0,0,1,3.15,3.45,10.24,10.24,0,0,1,1.27,5.33,11.78,11.78,0,0,1-1.05,5.17A9.57,9.57,0,0,1,535.38,86a12.78,12.78,0,0,1-4.5,2.07,23.38,23.38,0,0,1-5.83.68,25.59,25.59,0,0,1-4.85-.43,23.89,23.89,0,0,1-4.2-1.17,21.37,21.37,0,0,1-3.62-1.78,26.72,26.72,0,0,1-3.08-2.17,1.17,1.17,0,0,1-.45-.83,1.29,1.29,0,0,1,.25-.92L513,75.89a1.29,1.29,0,0,1,.8-.5A1.16,1.16,0,0,1,514.65,75.54Zm45.27,2.7h-4.37a1.19,1.19,0,0,0-.85.35,1.17,1.17,0,0,0-.35.85v7.45a1.13,1.13,0,0,1-.35.85,1.15,1.15,0,0,1-.84.35h-7.51a1.15,1.15,0,0,1-.85-.35,1.17,1.17,0,0,1-.35-.85V52.69a1.2,1.2,0,0,1,1.2-1.2H561a13.4,13.4,0,0,1,9.58,3.95,14.35,14.35,0,0,1,2.9,4.3A13,13,0,0,1,574.5,65a14.83,14.83,0,0,1-.9,5.22,11.15,11.15,0,0,1-2.73,4.2,12.88,12.88,0,0,1-4.56,2.8A18,18,0,0,1,559.92,78.24Zm.36-17.55h-4.72a1.19,1.19,0,0,0-.86.35,1.15,1.15,0,0,0-.35.84v5.87a1.15,1.15,0,0,0,.35.84,1.19,1.19,0,0,0,.86.35h5.37a3.2,3.2,0,0,0,2.79-1.22A4.57,4.57,0,0,0,564.6,65a4.66,4.66,0,0,0-.27-1.56A4,4,0,0,0,563.5,62a4.25,4.25,0,0,0-1.36-1A4.38,4.38,0,0,0,560.28,60.69Zm25.77-8a1.86,1.86,0,0,1,.68-.78,1.81,1.81,0,0,1,1-.32h7a1.78,1.78,0,0,1,1,.32,1.9,1.9,0,0,1,.67.78l14.6,34a1,1,0,0,1-.07,1,1.13,1.13,0,0,1-1.08.5H601.3a1.72,1.72,0,0,1-1-.33,2.23,2.23,0,0,1-.73-.77l-1.35-3a2.42,2.42,0,0,0-.72-.78,1.78,1.78,0,0,0-1-.32H586a1.79,1.79,0,0,0-1,.32,1.93,1.93,0,0,0-.68.78l-1.4,3a1.82,1.82,0,0,1-.67.77,1.72,1.72,0,0,1-1,.33h-8.6a1.45,1.45,0,0,1-.52-.1,1,1,0,0,1-.45-.3,1,1,0,0,1-.23-.5,1.22,1.22,0,0,1,.15-.7Zm3,21.75h4.45a.83.83,0,0,0,.73-.33.68.68,0,0,0,0-.77c-.33-.83-.73-1.81-1.2-2.93s-.9-2.15-1.3-3.12q-.2-.45-.45-.45c-.17,0-.31.15-.45.45l-2.5,6.05a.8.8,0,0,0,0,.77A.82.82,0,0,0,589,74.39Zm58.9,4a28.21,28.21,0,0,1-3.2,4.26A18.3,18.3,0,0,1,636,88a21.37,21.37,0,0,1-5.85.75,18.88,18.88,0,0,1-7.5-1.5,20,20,0,0,1-6.12-4,18.64,18.64,0,0,1-4.13-6,18.76,18.76,0,0,1,0-14.7,18.64,18.64,0,0,1,4.13-6,20,20,0,0,1,6.12-4.05,18.88,18.88,0,0,1,7.5-1.5,21.86,21.86,0,0,1,5.95.75,18,18,0,0,1,8.68,5.37,31.52,31.52,0,0,1,3.17,4.23,1,1,0,0,1,.1.85,1,1,0,0,1-.6.65l-7.1,2.8a1.33,1.33,0,0,1-1,0,1.51,1.51,0,0,1-.75-.6,10.55,10.55,0,0,0-3.5-3.53,9.54,9.54,0,0,0-4.95-1.22,8.22,8.22,0,0,0-3.57.8,9.68,9.68,0,0,0-4.88,5.21,9.74,9.74,0,0,0,0,7.25,9.61,9.61,0,0,0,2,3,10.15,10.15,0,0,0,2.93,2.11,8.22,8.22,0,0,0,3.57.8,9.5,9.5,0,0,0,5-1.33,10.12,10.12,0,0,0,3.52-3.42,1.5,1.5,0,0,1,.73-.6,1.25,1.25,0,0,1,1,0l7.1,2.8a1,1,0,0,1,.6.62A1,1,0,0,1,647.9,78.39Zm13.6-16.5V64a1.17,1.17,0,0,0,.35.85,1.19,1.19,0,0,0,.85.35h13.55a1.15,1.15,0,0,1,.85.35,1.13,1.13,0,0,1,.35.85v6.9a1.13,1.13,0,0,1-.35.85,1.15,1.15,0,0,1-.85.35H662.7a1.19,1.19,0,0,0-.85.35,1.17,1.17,0,0,0-.35.85v1.9a1.17,1.17,0,0,0,.35.85,1.19,1.19,0,0,0,.85.35h15.55a1.15,1.15,0,0,1,.85.35,1.13,1.13,0,0,1,.35.85v6.9a1.13,1.13,0,0,1-.35.85,1.15,1.15,0,0,1-.85.35H652.8a1.19,1.19,0,0,1-.85-.35,1.17,1.17,0,0,1-.35-.85V52.69a1.17,1.17,0,0,1,.35-.85,1.19,1.19,0,0,1,.85-.35h25.45a1.15,1.15,0,0,1,.85.35,1.13,1.13,0,0,1,.35.85v6.8a1.13,1.13,0,0,1-.35.85,1.15,1.15,0,0,1-.85.35H662.7a1.19,1.19,0,0,0-.85.35A1.17,1.17,0,0,0,661.5,61.89Z"/></g></g></svg>